# xmcd
#
# Track frame offsets:
#  150
#  14867
#  32908
#  49002
#  60279
#  78527
#  101806
#  117695
#  137511
#  155869
#  171619
#  191425
#  224363
#
# Disc length: 4440 seconds
#
# Revision: 1
# Processed by: cddbd v1.5.1PL2 Copyright (c) Steve Scherf et al.
# Submitted via: Collectorz.com_Music_Collector 6.11
#
DISCID=c411560d
DTITLE=Simon Bruce - Restless Thoughts
DYEAR=2005
DGENRE=Country
TTITLE0=The Holy Grail
TTITLE1=Turn Myself To Driftin'
TTITLE2=Too Late Now
TTITLE3=Rainbow Hotel
TTITLE4=Restless Thoughts
TTITLE5=If You Stay
TTITLE6=What Scares You Tonight?
TTITLE7=Never Say Good-Bye
TTITLE8=Crazy Like The Wind
TTITLE9=Young N Free
TTITLE10=Peaceful
TTITLE11=The Final Straw
TTITLE12=Data
EXTD=
EXTT0=
EXTT1=
EXTT2=
EXTT3=
EXTT4=
EXTT5=
EXTT6=
EXTT7=
EXTT8=
EXTT9=
EXTT10=
EXTT11=
EXTT12=
PLAYORDER=
